<?xml version="1.0" encoding="UTF-8"?>
<svg xmlns="http://www.w3.org/2000/svg" xmlns:xlink="http://www.w3.org/1999/xlink" viewBox="0 0 64 64" width="64px" height="64px">
<defs>
<linearGradient id="linear0" gradientUnits="userSpaceOnUse" x1="60.86919" y1="71.062881" x2="61.428188" y2="107.322617" gradientTransform="matrix(0.372093,0,0,0.372093,0,0)">
<stop offset="0" style="stop-color:rgb(100%,100%,100%);stop-opacity:1;"/>
<stop offset="1" style="stop-color:rgb(69.803923%,54.901963%,94.509804%);stop-opacity:1;"/>
</linearGradient>
<linearGradient id="linear1" gradientUnits="userSpaceOnUse" x1="109.808563" y1="70.310371" x2="110.367561" y2="106.570129" gradientTransform="matrix(0.372093,0,0,0.372093,0,0)">
<stop offset="0" style="stop-color:rgb(100%,100%,100%);stop-opacity:1;"/>
<stop offset="1" style="stop-color:rgb(69.803923%,54.901963%,94.509804%);stop-opacity:1;"/>
</linearGradient>
<linearGradient id="linear2" gradientUnits="userSpaceOnUse" x1="87.28463" y1="27.63825" x2="87.28463" y2="142.072006" gradientTransform="matrix(0.372093,0,0,0.372093,0,0)">
<stop offset="0" style="stop-color:rgb(89.803922%,69.803923%,79.215688%);stop-opacity:1;"/>
<stop offset="1" style="stop-color:rgb(43.921569%,15.686275%,89.411765%);stop-opacity:1;"/>
</linearGradient>
</defs>
<g id="surface2344617">
<path style=" stroke:none;fill-rule:nonzero;fill:url(#linear0);" d="M 22.75 27.253906 C 20.121094 27.253906 17.957031 29.855469 17.957031 33.023438 C 17.957031 36.1875 20.121094 38.792969 22.75 38.792969 C 25.378906 38.792969 27.542969 36.1875 27.542969 33.023438 C 27.542969 29.855469 25.378906 27.253906 22.75 27.253906 Z M 22.75 27.253906 "/>
<path style=" stroke:none;fill-rule:nonzero;fill:url(#linear1);" d="M 40.964844 27.253906 C 38.335938 27.253906 36.171875 29.855469 36.171875 33.023438 C 36.171875 36.1875 38.335938 38.792969 40.964844 38.792969 C 43.59375 38.792969 45.757812 36.1875 45.757812 33.023438 C 45.757812 29.855469 43.59375 27.253906 40.964844 27.253906 Z M 40.964844 27.253906 "/>
<path style=" stroke:none;fill-rule:nonzero;fill:url(#linear2);" d="M 52.253906 14.21875 C 52.148438 14.066406 52.003906 13.949219 51.835938 13.875 C 47.15625 11.8125 43.5 10.675781 40.328125 10.289062 C 39.917969 10.242188 39.503906 10.460938 39.3125 10.839844 L 38.214844 13.054688 C 36.46875 12.847656 34.617188 12.773438 32.503906 12.832031 C 30.339844 12.777344 28.484375 12.847656 26.738281 13.054688 L 25.640625 10.839844 C 25.449219 10.460938 25.039062 10.242188 24.621094 10.289062 C 21.453125 10.675781 17.796875 11.8125 13.117188 13.875 C 12.949219 13.949219 12.804688 14.066406 12.699219 14.21875 C 6.175781 23.585938 3.574219 33.746094 4.75 45.28125 C 4.78125 45.582031 4.945312 45.851562 5.199219 46.015625 C 10.304688 49.34375 14.710938 51.507812 19.066406 52.820312 C 19.507812 52.953125 19.980469 52.769531 20.214844 52.375 L 23.375 47.035156 C 26.261719 47.953125 29.285156 48.429688 32.324219 48.429688 C 34.941406 48.429688 37.542969 48.066406 40.058594 47.386719 C 40.558594 47.265625 41.058594 47.148438 41.554688 47.003906 L 44.734375 52.375 C 44.917969 52.683594 45.25 52.863281 45.59375 52.863281 C 45.691406 52.863281 45.789062 52.851562 45.882812 52.820312 C 50.238281 51.507812 54.644531 49.34375 59.753906 46.015625 C 60.003906 45.851562 60.171875 45.578125 60.199219 45.28125 C 61.378906 33.746094 58.777344 23.585938 52.253906 14.21875 Z M 58.261719 44.601562 C 53.78125 47.484375 49.871094 49.433594 46.054688 50.671875 L 43.4375 46.25 C 44.464844 45.832031 45.476562 45.367188 46.457031 44.832031 C 46.941406 44.570312 47.121094 43.960938 46.855469 43.476562 C 46.59375 42.992188 45.984375 42.8125 45.5 43.074219 C 43.535156 44.144531 41.445312 44.964844 39.289062 45.527344 C 37.070312 46.046875 34.824219 46.335938 32.476562 46.382812 C 29.316406 46.316406 26.210938 45.804688 23.242188 44.867188 C 23.230469 44.863281 23.21875 44.863281 23.210938 44.863281 C 21.816406 44.375 20.457031 43.785156 19.15625 43.078125 C 18.667969 42.8125 18.0625 42.992188 17.800781 43.476562 C 17.535156 43.960938 17.714844 44.570312 18.199219 44.835938 C 19.253906 45.410156 20.34375 45.914062 21.460938 46.355469 L 18.902344 50.675781 C 15.085938 49.433594 11.175781 47.488281 6.695312 44.601562 C 5.699219 33.855469 8.148438 24.359375 14.1875 15.59375 C 18.210938 13.835938 21.414062 12.800781 24.171875 12.371094 L 25.269531 14.582031 C 25.460938 14.964844 25.875 15.183594 26.304688 15.125 C 28.148438 14.863281 30.101562 14.769531 32.503906 14.832031 C 34.855469 14.769531 36.808594 14.863281 38.652344 15.125 C 39.082031 15.183594 39.496094 14.964844 39.6875 14.582031 L 40.785156 12.371094 C 43.542969 12.800781 46.746094 13.835938 50.769531 15.59375 C 56.804688 24.355469 59.257812 33.851562 58.261719 44.601562 Z M 58.261719 44.601562 "/>
</g>
</svg>
