<?xml version="1.0" encoding="UTF-8"?>
<svg xmlns="http://www.w3.org/2000/svg" xmlns:xlink="http://www.w3.org/1999/xlink" viewBox="0 0 64 64" width="64px" height="64px">
<defs>
<linearGradient id="linear0" gradientUnits="userSpaceOnUse" x1="86" y1="37.625" x2="86" y2="120.9375" gradientTransform="matrix(0.372093,0,0,0.372093,0,0)">
<stop offset="0" style="stop-color:rgb(89.803922%,69.803923%,79.215688%);stop-opacity:1;"/>
<stop offset="1" style="stop-color:rgb(43.921569%,15.686275%,89.411765%);stop-opacity:1;"/>
</linearGradient>
<linearGradient id="linear1" gradientUnits="userSpaceOnUse" x1="118.25" y1="48.375" x2="118.25" y2="110.1875" gradientTransform="matrix(0.372093,0,0,0.372093,0,0)">
<stop offset="0" style="stop-color:rgb(100%,100%,100%);stop-opacity:1;"/>
<stop offset="1" style="stop-color:rgb(69.803923%,54.901963%,94.509804%);stop-opacity:1;"/>
</linearGradient>
</defs>
<g id="surface2337946">
<path style=" stroke:none;fill-rule:nonzero;fill:url(#linear0);" d="M 22 20.019531 L 22 45 L 24 45 L 24 20.328125 C 23.351562 20.148438 22.679688 20.050781 22 20.019531 Z M 14 23.699219 L 14 45 L 16 45 L 16 21.789062 C 15.238281 22.320312 14.570312 22.96875 14 23.699219 Z M 6 28.519531 L 6 43.480469 C 6.621094 43.890625 7.289062 44.230469 8 44.480469 L 8 27.519531 C 7.289062 27.769531 6.621094 28.109375 6 28.519531 Z M 4 41.640625 L 4 30.359375 C 2.75 31.898438 2 33.871094 2 36 C 2 38.128906 2.75 40.101562 4 41.640625 Z M 11 27 C 10.660156 27 10.328125 27.019531 10 27.058594 L 10 44.941406 C 10.328125 44.980469 10.660156 45 11 45 C 11.238281 45 11.480469 44.988281 11.738281 44.960938 C 11.820312 44.988281 11.910156 45 12 45 L 12 27.058594 C 11.671875 27.019531 11.328125 27 11 27 Z M 18 20.691406 L 18 45 L 20 45 L 20 20.128906 C 19.308594 20.230469 18.640625 20.421875 18 20.691406 Z M 53 27 C 52.320312 27 51.648438 27.070312 51 27.21875 L 51 27 C 51 19.828125 45.171875 14 38 14 C 33.019531 14 28.480469 16.890625 26.320312 21.320312 C 26.21875 21.261719 26.109375 21.199219 26 21.140625 L 26 45 C 26 45 52.761719 45 53 45 C 57.960938 45 62 40.960938 62 36 C 62 31.039062 57.960938 27 53 27 Z M 53 43 C 52.699219 43 28 43 28 43 L 28 22.449219 C 29.769531 18.558594 33.691406 16 38 16 C 44.070312 16 49 20.929688 49 27 C 49 27.449219 48.960938 27.929688 48.878906 28.5 C 48.839844 28.851562 48.980469 29.210938 49.269531 29.429688 C 49.558594 29.648438 49.941406 29.691406 50.269531 29.550781 C 51.128906 29.191406 52.050781 29 53 29 C 56.859375 29 60 32.140625 60 36 C 60 39.859375 56.859375 43 53 43 Z M 53 43 "/>
<path style=" stroke:none;fill-rule:nonzero;fill:url(#linear1);" d="M 58 36 C 58 38.761719 55.761719 41 53 41 L 30 41 L 30 22.898438 L 30.121094 22.679688 C 31.710938 19.789062 34.730469 18 38 18 C 42.960938 18 47 22.039062 47 27 C 47 27.351562 46.96875 27.738281 46.898438 28.21875 C 46.761719 29.300781 47.199219 30.371094 48.058594 31.019531 C 48.589844 31.421875 49.210938 31.640625 49.878906 31.640625 C 50.28125 31.640625 50.679688 31.558594 51.050781 31.398438 C 51.671875 31.128906 52.320312 31 53 31 C 55.761719 31 58 33.238281 58 36 Z M 58 36 "/>
</g>
</svg>
