<?xml version="1.0" encoding="UTF-8"?>
<svg xmlns="http://www.w3.org/2000/svg" xmlns:xlink="http://www.w3.org/1999/xlink" viewBox="0 0 64 64" width="64px" height="64px">
<defs>
<linearGradient id="linear0" gradientUnits="userSpaceOnUse" x1="83.549004" y1="48.710941" x2="83.549004" y2="114.920189" gradientTransform="matrix(0.372093,0,0,0.372093,0,0)">
<stop offset="0" style="stop-color:rgb(100%,100%,100%);stop-opacity:1;"/>
<stop offset="1" style="stop-color:rgb(69.803923%,54.901963%,94.509804%);stop-opacity:1;"/>
</linearGradient>
<linearGradient id="linear1" gradientUnits="userSpaceOnUse" x1="85.997307" y1="48.710941" x2="85.997307" y2="114.920189" gradientTransform="matrix(0.372093,0,0,0.372093,0,0)">
<stop offset="0" style="stop-color:rgb(100%,100%,100%);stop-opacity:1;"/>
<stop offset="1" style="stop-color:rgb(69.803923%,54.901963%,94.509804%);stop-opacity:1;"/>
</linearGradient>
<linearGradient id="linear2" gradientUnits="userSpaceOnUse" x1="80.748627" y1="48.710941" x2="80.748627" y2="114.920189" gradientTransform="matrix(0.372093,0,0,0.372093,0,0)">
<stop offset="0" style="stop-color:rgb(100%,100%,100%);stop-opacity:1;"/>
<stop offset="1" style="stop-color:rgb(69.803923%,54.901963%,94.509804%);stop-opacity:1;"/>
</linearGradient>
<linearGradient id="linear3" gradientUnits="userSpaceOnUse" x1="85.997307" y1="9.74219" x2="85.997307" y2="155.595505" gradientTransform="matrix(0.372093,0,0,0.372093,0,0)">
<stop offset="0" style="stop-color:rgb(89.803922%,69.803923%,79.215688%);stop-opacity:1;"/>
<stop offset="1" style="stop-color:rgb(43.921569%,15.686275%,89.411765%);stop-opacity:1;"/>
</linearGradient>
</defs>
<g id="surface2342906">
<path style=" stroke:none;fill-rule:nonzero;fill:url(#linear0);" d="M 45.390625 32.558594 C 37.65625 27.808594 26.339844 26.46875 17.238281 29.230469 C 16.207031 29.546875 15.625 30.632812 15.9375 31.667969 C 16.25 32.699219 17.34375 33.28125 18.375 32.96875 C 26.34375 30.550781 36.613281 31.75 43.347656 35.890625 C 44.265625 36.453125 45.46875 36.164062 46.035156 35.246094 C 46.597656 34.328125 46.308594 33.125 45.390625 32.558594 "/>
<path style=" stroke:none;fill-rule:nonzero;fill:url(#linear1);" d="M 48.691406 24.109375 C 39.390625 18.589844 24.675781 18.070312 15.824219 20.757812 C 14.585938 21.132812 13.886719 22.441406 14.261719 23.679688 C 14.636719 24.917969 15.945312 25.617188 17.183594 25.242188 C 24.894531 22.902344 38.21875 23.34375 46.296875 28.140625 C 47.40625 28.800781 48.847656 28.433594 49.507812 27.320312 C 50.171875 26.210938 49.804688 24.769531 48.691406 24.109375 "/>
<path style=" stroke:none;fill-rule:nonzero;fill:url(#linear2);" d="M 42.449219 39.921875 C 35.84375 35.886719 27.65625 34.945312 18.109375 37.128906 C 17.265625 37.320312 16.742188 38.15625 16.933594 39 C 17.125 39.839844 17.964844 40.367188 18.804688 40.171875 C 27.527344 38.179688 34.933594 38.992188 40.820312 42.589844 C 41.554688 43.039062 42.519531 42.808594 42.96875 42.070312 C 43.417969 41.335938 43.1875 40.371094 42.449219 39.921875 "/>
<path style=" stroke:none;fill-rule:nonzero;fill:url(#linear3);" d="M 32 57 C 17.660156 57 6 45.335938 6 31 C 6 16.664062 17.660156 5 32 5 C 46.335938 5 58 16.664062 58 31 C 58 45.335938 46.335938 57 32 57 Z M 32 7 C 18.765625 7 8 17.765625 8 31 C 8 44.234375 18.765625 55 32 55 C 45.230469 55 56 44.234375 56 31 C 56 17.765625 45.230469 7 32 7 Z M 32 7 "/>
</g>
</svg>
