<?xml version="1.0" encoding="UTF-8"?>
<svg xmlns="http://www.w3.org/2000/svg" xmlns:xlink="http://www.w3.org/1999/xlink" viewBox="0 0 64 64" width="64px" height="64px">
<defs>
<linearGradient id="linear0" gradientUnits="userSpaceOnUse" x1="86" y1="26.875" x2="86" y2="147.143311" gradientTransform="matrix(0.372093,0,0,0.372093,0,0)">
<stop offset="0" style="stop-color:rgb(89.803922%,69.803923%,79.215688%);stop-opacity:1;"/>
<stop offset="1" style="stop-color:rgb(43.921569%,15.686275%,89.411765%);stop-opacity:1;"/>
</linearGradient>
<linearGradient id="linear1" gradientUnits="userSpaceOnUse" x1="85.247498" y1="65.171883" x2="85.247498" y2="105.489754" gradientTransform="matrix(0.372093,0,0,0.372093,0,0)">
<stop offset="0" style="stop-color:rgb(100%,100%,100%);stop-opacity:1;"/>
<stop offset="1" style="stop-color:rgb(69.803923%,54.901963%,94.509804%);stop-opacity:1;"/>
</linearGradient>
<linearGradient id="linear2" gradientUnits="userSpaceOnUse" x1="86.569748" y1="26.875" x2="86.569748" y2="147.143311" gradientTransform="matrix(0.372093,0,0,0.372093,0,0)">
<stop offset="0" style="stop-color:rgb(89.803922%,69.803923%,79.215688%);stop-opacity:1;"/>
<stop offset="1" style="stop-color:rgb(43.921569%,15.686275%,89.411765%);stop-opacity:1;"/>
</linearGradient>
</defs>
<g id="surface2349071">
<path style=" stroke:none;fill-rule:nonzero;fill:url(#linear0);" d="M 32 53 C 25.640625 53 19.285156 52.804688 12.699219 52.417969 C 7.742188 52.125 3.738281 48.175781 3.394531 43.230469 C 2.871094 35.777344 2.871094 28.222656 3.390625 20.769531 C 3.738281 15.824219 7.742188 11.875 12.699219 11.582031 C 25.867188 10.804688 38.132812 10.804688 51.300781 11.582031 C 56.257812 11.875 60.261719 15.824219 60.605469 20.769531 C 61.128906 28.222656 61.128906 35.777344 60.609375 43.230469 C 60.261719 48.175781 56.257812 52.125 51.300781 52.417969 C 44.714844 52.804688 38.359375 53 32 53 Z M 51.183594 50.421875 L 51.242188 51.417969 L 51.183594 50.421875 C 55.140625 50.1875 58.335938 47.035156 58.613281 43.089844 C 59.128906 35.730469 59.128906 28.269531 58.613281 20.910156 C 58.335938 16.964844 55.140625 13.8125 51.183594 13.578125 C 38.09375 12.804688 25.90625 12.804688 12.820312 13.578125 C 8.859375 13.8125 5.664062 16.964844 5.386719 20.910156 C 4.871094 28.269531 4.871094 35.730469 5.390625 43.089844 C 5.664062 47.035156 8.859375 50.1875 12.820312 50.421875 C 25.90625 51.195312 38.09375 51.195312 51.183594 50.421875 Z M 51.183594 50.421875 "/>
<path style=" stroke:none;fill-rule:nonzero;fill:url(#linear1);" d="M 25 39.839844 L 25 24.160156 L 38.441406 32 Z M 25 39.839844 "/>
<path style=" stroke:none;fill-rule:nonzero;fill:url(#linear2);" d="M 24 41.582031 L 24 22.417969 L 40.425781 32 Z M 26 25.902344 L 26 38.097656 L 36.457031 32 Z M 26 25.902344 "/>
</g>
</svg>
